<?xml version="1.0" encoding="UTF-8"?>
<svg version="1.1" viewBox="0 0 64 64" xmlns="http://www.w3.org/2000/svg">
   <g transform="translate(.45923 14.1)">
      <path transform="translate(-.45923 -14.1)" d="m57.395 0.71289c-0.15941 0.008842-0.31943 0.033546-0.47852 0.076172l-4.791 1.2832c-1.2727 0.34101-2.052 1.6922-1.7109 2.9648l0.31445 1.1699-32.436 8.6914a1.3601 1.3601 0 0 0 -0.05078 0.01172c-13.11 3.5127-20.909 17.025-17.396 30.135 3.5127 13.11 17.023 20.909 30.133 17.396 13.11-3.5127 20.909-17.023 17.396-30.133-1.0684-3.9874-3.073-7.4783-5.6973-10.316l11.457-3.0703 0.3125 1.1699c0.34102 1.2727 1.6922 2.0539 2.9648 1.7129l4.791-1.2832c1.2727-0.34101 2.0539-1.6922 1.7129-2.9648l-4.0352-15.057c-0.29839-1.1136-1.3704-1.849-2.4863-1.7871zm-0.0625 2.7812 3.8789 14.479-4.2148 1.127-0.53516-1.998a1.3599 1.3599 0 0 0 -0.10547 -0.39258l-3.2363-12.088zm-5.9004 5.3398 1.998 7.4609-13.645 3.6562a1.3601 1.3601 0 0 0 -0.18359 0.05078l-5.9297 1.5879a1.3599 1.3599 0 1 0 0.70312 2.627l5.2832-1.416c2.8407 2.6864 5.0021 6.1515 6.0898 10.211 3.1322 11.69-3.783 23.67-15.473 26.803-11.69 3.1322-23.67-3.7849-26.803-15.475-3.1322-11.69 3.7849-23.669 15.475-26.801zm-26.453 16.367c-0.38672-0.01074-0.77542-0.0057-1.166 0.01758-0.89278 0.05328-1.7924 0.19713-2.6895 0.4375-7.1767 1.923-11.446 9.3175-9.5234 16.494 1.923 7.1767 9.3175 11.446 16.494 9.5234 7.1766-1.923 11.446-9.3175 9.5234-16.494-1.5774-5.8871-6.8379-9.8174-12.639-9.9785zm0.11719 1.3633c0.3968 0.0156 0.7902 0.04947 1.1797 0.10352 4.6739 0.64857 8.7278 4.0132 10.027 8.8633 1.7328 6.4668-2.0938 13.095-8.5605 14.828-6.4668 1.7328-13.097-2.0938-14.83-8.5605-1.7328-6.4668 2.0957-13.095 8.5625-14.828 1.2125-0.3249 2.4307-0.45304 3.6211-0.40625zm-0.07422 1.6426c-1.0282-0.04202-2.0791 0.06792-3.123 0.34766-5.5679 1.4919-8.8923 7.2524-7.4004 12.82 1.4919 5.5679 7.2505 8.8923 12.818 7.4004 5.5679-1.4919 8.8923-7.2505 7.4004-12.818-1.1189-4.1759-4.6372-7.0915-8.6758-7.6582-0.33655-0.04723-0.67681-0.07779-1.0195-0.0918zm-0.09766 2.7129c0.25411 0.0098 0.50659 0.03206 0.75586 0.06641 0.19594 0.02699 0.3841 0.08135 0.57617 0.12305-7.19e-4 0.0013-0.0012 0.0026-2e-3 0.0039-0.42449 0.75414-0.74494 1.7449-0.93359 2.3633-0.44362-0.05271-0.89913-0.04857-1.3574 0.01172-0.1364-0.64063-0.3396-1.6418-0.3457-2.2012-5.3e-4 -0.05028 0.03846-0.20329 0.05273-0.30273 0.4209-0.05224 0.84039-0.08046 1.2539-0.06445zm-2.666 0.37305c2.4e-5 0.0033-3.5e-5 0.0065 0 0.0098 0.0096 0.87559 0.23207 1.9094 0.37695 2.5312-0.42928 0.17183-0.82657 0.39475-1.1875 0.6582-0.44203-0.49152-1.1033-1.2452-1.3848-1.7207-0.02654-0.04483-0.07221-0.2007-0.11133-0.29883 0.67909-0.50889 1.4546-0.90896 2.3066-1.1797zm5.3809 0.24609c0.80115 0.34048 1.5383 0.81376 2.1836 1.4023-0.0043 0.0025-0.0093 0.0033-0.01367 0.0059-0.71667 0.42426-1.4552 1.0853-1.9434 1.5391-0.37401-0.27405-0.78182-0.49827-1.2168-0.66797 0.20692-0.63385 0.5219-1.5625 0.78906-2.0371 0.02523-0.04483 0.13682-0.16072 0.20117-0.24219zm-8.7559 1.9043c4e-3 0.0069 0.0057 0.0146 0.0098 0.02148 0.43585 0.73623 1.1211 1.4975 1.5664 1.9746-0.29418 0.35883-0.53143 0.75483-0.72266 1.1738-0.64-0.20933-1.5453-0.51676-2.0117-0.7793-0.04522-0.02545-0.16175-0.13796-0.24414-0.20312 0.34107-0.80164 0.81296-1.5419 1.4023-2.1875zm11.9 0.57031c0.50975 0.67903 0.91405 1.4483 1.1855 2.3008-0.79972 0.0087-1.7258 0.19642-2.3887 0.3457-0.18445-0.44834-0.43191-0.85516-0.72461-1.2227 0.50672-0.45349 1.1977-1.0558 1.6445-1.3203 0.04234-0.02507 0.19225-0.06724 0.2832-0.10352zm-6.3672 0.78906c0.26658-0.01831 0.52956-0.01078 0.78711 0.02148 1.5453 0.19361 2.8663 1.2614 3.2793 2.8027 0.55068 2.0552-0.71583 4.189-2.875 4.7676-2.1592 0.57854-4.3243-0.63625-4.875-2.6914-0.55068-2.0552 0.71779-4.1871 2.877-4.7656 0.2699-0.07232 0.54006-0.11646 0.80664-0.13477zm0.05078 1.502c-0.15639 0.0091-0.31395 0.03417-0.4707 0.07617-1.254 0.33601-2.0098 1.6425-1.6738 2.8965 0.33601 1.254 1.6444 2.0079 2.8984 1.6719 1.254-0.33601 2.0079-1.6425 1.6719-2.8965-0.29402-1.0973-1.331-1.8117-2.4258-1.748zm-7.4258 0.69922c0.0065 0.0037 0.01101 0.01 0.01758 0.01367 0.70364 0.39607 1.6111 0.69911 2.2578 0.90039-0.07622 0.46348-0.0847 0.94131-0.02734 1.4219-0.6688 0.13923-1.5472 0.30889-2.0566 0.31445-0.0508 5.35e-4 -0.2055-0.03819-0.30664-0.05273-0.11004-0.88554-0.06749-1.7612 0.11524-2.5977zm7.709 0.66211c0.38842 0.05191 0.71877 0.33016 0.82812 0.73828 0.14581 0.54416-0.16678 1.0866-0.71094 1.2324-0.54416 0.14581-1.0847-0.16678-1.2305-0.71094-0.1458-0.54416 0.16678-1.0866 0.71094-1.2324 0.13604-0.03645 0.27287-0.04465 0.40234-0.02734zm7.2344 0.0078c0.0506-5.33e-4 0.20441 0.03829 0.30469 0.05273 0.11045 0.88521 0.0707 1.7595-0.11133 2.5957-7e-3 -4e-3 -0.01251-0.0097-0.01953-0.01367-0.70447-0.39654-1.6114-0.69986-2.2578-0.90039 0.07594-0.46315 0.08485-0.93978 0.02734-1.4199 0.66882-0.13923 1.5473-0.30889 2.0566-0.31445zm-12.352 2.9961c0.18415 0.44862 0.42432 0.86265 0.7168 1.2305-0.50881 0.45435-1.1928 1.0469-1.6348 1.3086-0.04509 0.0267-0.20188 0.07195-0.30078 0.11133-0.50803-0.67873-0.90746-1.4553-1.1777-2.3066 0.0033-2.4e-5 0.0065 3.6e-5 0.0098 0 0.79749-0.0087 1.7226-0.19446 2.3867-0.34375zm9.8496 0.04492c0.63976 0.20948 1.5419 0.51707 2.0078 0.7793 0.04583 0.0258 0.16423 0.13865 0.24805 0.20508-0.34071 0.80163-0.81528 1.5399-1.4043 2.1855-4e-3 -0.0069-0.0057-0.01462-0.0098-0.02148-0.43585-0.73624-1.1211-1.4975-1.5664-1.9746 0.29447-0.35938 0.53336-0.7542 0.72461-1.1738zm-8.123 2.123c0.37249 0.27271 0.77606 0.4987 1.209 0.66797-0.2064 0.63262-0.52294 1.5648-0.79102 2.041-0.0258 0.04583-0.13865 0.16423-0.20508 0.24805-0.80194-0.34142-1.5418-0.81631-2.1875-1.4062 0.0074-0.0043 0.01606-0.0054 0.02344-0.0098v2e-3c0.72042-0.42648 1.4648-1.0906 1.9512-1.543zm6.4102 2e-3c0.44239 0.49197 1.1037 1.2419 1.3848 1.7168 0.02672 0.04513 0.07224 0.20177 0.11133 0.30078-0.67962 0.50956-1.4555 0.90884-2.3086 1.1797-2.5e-5 -4e-3 2e-3 -0.0077 2e-3 -0.01172-0.0095-0.87402-0.23132-1.9057-0.37695-2.5293 0.42922-0.17185 0.82654-0.39282 1.1875-0.65625zm-2.5137 1.002c0.13594 0.64136 0.3357 1.6407 0.3418 2.1992 5.4e-4 0.05123-0.03796 0.20663-0.05273 0.30859-0.88485 0.10995-1.7599 0.06714-2.5957-0.11523 4e-3 -7e-3 0.0097-0.0125 0.01367-0.01953 0.42373-0.75277 0.74314-1.74 0.93164-2.3594 0.44481 0.05303 0.9022 0.04716 1.3613-0.01367z" color="#000000" color-rendering="auto" dominant-baseline="auto" fill="fill" fill-opacity=".99505" image-rendering="auto" shape-rendering="auto" solid-color="#000000" style="font-feature-settings:normal;font-variant-alternates:normal;font-variant-caps:normal;font-variant-ligatures:normal;font-variant-numeric:normal;font-variant-position:normal;isolation:auto;mix-blend-mode:normal;shape-padding:0;text-decoration-color:#000000;text-decoration-line:none;text-decoration-style:solid;text-indent:0;text-orientation:mixed;text-transform:none;white-space:normal"/>
   </g>
</svg>
